<svg width="426" height="108" viewBox="0 0 426 108" fill="none" xmlns="http://www.w3.org/2000/svg">
<path d="M257.197 36.9981C255.952 36.5676 254.696 36.1688 253.431 35.8021C253.644 34.9271 253.84 34.0627 254.013 33.2135C256.864 19.2683 255 8.03372 248.634 4.33477C242.531 0.788717 232.549 4.48628 222.468 13.327C221.474 14.1999 220.502 15.0979 219.554 16.0202C218.919 15.4069 218.273 14.8055 217.616 14.2163C207.05 4.76352 196.46 0.779506 190.101 4.48905C184.002 8.04615 182.197 18.6074 184.763 31.8236C185.019 33.1325 185.307 34.4347 185.628 35.7288C184.129 36.1581 182.682 36.6149 181.298 37.1012C168.911 41.4532 161 48.2731 161 55.3473C161 62.6535 169.493 69.9819 182.395 74.4255C183.441 74.7843 184.495 75.1167 185.558 75.4225C185.213 76.8164 184.906 78.2197 184.639 79.6308C182.192 92.6177 184.103 102.929 190.185 106.464C196.466 110.114 207.009 106.363 217.274 97.3201C218.107 96.585 218.921 95.829 219.716 95.0529C220.743 96.0516 221.798 97.0212 222.878 97.9607C232.822 106.583 242.643 110.064 248.719 106.52C254.994 102.859 257.034 91.7818 254.386 78.3045C254.178 77.2487 253.944 76.198 253.685 75.1536C254.425 74.9325 255.152 74.705 255.86 74.4683C269.273 69.9906 278 62.7511 278 55.3473C278 48.2473 269.834 41.3813 257.197 36.9981V36.9981ZM254.288 69.6881C253.648 69.9013 252.992 70.1071 252.323 70.3075C250.842 65.5839 248.844 60.5613 246.399 55.3717C248.732 50.3059 250.654 45.3474 252.093 40.6546C253.29 41.0037 254.451 41.3717 255.571 41.7599C266.398 45.516 273.002 51.0685 273.002 55.3473C273.002 59.9046 265.869 65.821 254.288 69.6881V69.6881ZM249.483 79.2827C250.654 85.2419 250.821 90.63 250.045 94.8425C249.349 98.6275 247.947 101.151 246.214 102.162C242.528 104.312 234.642 101.517 226.138 94.1429C225.133 93.2695 224.152 92.368 223.196 91.4396C226.493 87.8065 229.788 83.5831 233.004 78.8921C238.66 78.3865 244.004 77.5594 248.85 76.4306C249.088 77.401 249.3 78.3524 249.483 79.2827V79.2827ZM200.888 101.79C197.286 103.072 194.416 103.108 192.682 102.101C188.991 99.9562 187.457 91.6764 189.55 80.5703C189.799 79.2579 190.083 77.9527 190.404 76.6563C195.196 77.7247 200.501 78.4929 206.171 78.9562C209.408 83.5462 212.798 87.7651 216.214 91.4594C215.488 92.1673 214.745 92.8571 213.985 93.5281C209.446 97.5264 204.897 100.363 200.888 101.79V101.79ZM184.012 69.66C178.306 67.6949 173.595 65.1413 170.365 62.3546C167.463 59.8508 165.999 57.3644 165.999 55.3473C165.999 51.0542 172.35 45.5786 182.943 41.8571C184.229 41.4058 185.575 40.9798 186.971 40.58C188.435 45.3787 190.356 50.3961 192.673 55.4698C190.325 60.6185 188.378 65.716 186.899 70.5714C185.929 70.2914 184.966 69.9876 184.012 69.66V69.66ZM189.669 30.856C187.47 19.5331 188.93 10.9917 192.605 8.84793C196.519 6.56464 205.174 9.8201 214.297 17.9825C214.892 18.5159 215.477 19.0602 216.053 19.615C212.653 23.2933 209.294 27.4808 206.086 32.0437C200.583 32.5577 195.316 33.3829 190.473 34.4887C190.175 33.2849 189.906 32.0738 189.669 30.8565V30.856ZM240.137 43.4136C238.993 41.4228 237.807 39.4569 236.579 37.5175C240.312 37.9933 243.889 38.6246 247.248 39.3965C246.24 42.6533 244.983 46.058 243.503 49.5488C242.422 47.4814 241.3 45.4359 240.137 43.4136V43.4136ZM219.556 23.2145C221.861 25.7313 224.17 28.541 226.441 31.5896C221.835 31.3704 217.22 31.3695 212.613 31.5869C214.886 28.5663 217.215 25.7603 219.556 23.2145ZM198.843 43.4482C197.695 45.4542 196.594 47.4869 195.54 49.5446C194.085 46.0663 192.84 42.646 191.823 39.3431C195.161 38.5906 198.721 37.9753 202.43 37.5083C201.188 39.4596 199.992 41.4399 198.843 43.4477V43.4482ZM202.536 73.5445C198.704 73.1135 195.091 72.53 191.754 71.7977C192.787 68.4359 194.059 64.9428 195.546 61.3898C196.604 63.4491 197.71 65.4831 198.863 67.49C200.048 69.5531 201.276 71.5739 202.536 73.5445ZM219.694 87.8346C217.325 85.2594 214.962 82.4101 212.655 79.3458C214.895 79.4342 217.179 79.4793 219.5 79.4793C221.885 79.4793 224.242 79.4254 226.563 79.3214C224.284 82.441 221.984 85.2944 219.694 87.8346ZM243.55 61.2084C245.114 64.8005 246.432 68.2752 247.479 71.5794C244.087 72.3596 240.424 72.9877 236.565 73.4542C237.802 71.4788 238.999 69.4788 240.157 67.4554C241.334 65.3987 242.465 63.3158 243.55 61.2084V61.2084ZM235.827 64.9391C234.055 68.0414 232.183 71.0848 230.215 74.0644C226.649 74.3189 223.075 74.4453 219.5 74.4435C215.859 74.4435 212.317 74.3292 208.907 74.1063C206.887 71.1336 204.979 68.0849 203.188 64.9667H203.189C201.406 61.8651 199.741 58.6964 198.196 55.4675C199.737 52.2377 201.397 49.0675 203.173 45.9636L203.173 45.964C204.949 42.8593 206.841 39.8236 208.846 36.8636C212.326 36.5983 215.894 36.4602 219.5 36.4602H219.5C223.122 36.4602 226.695 36.5997 230.174 36.8668C232.158 39.8224 234.038 42.8476 235.811 45.9369C237.594 49.034 239.276 52.1887 240.855 55.3961C239.292 58.6362 237.615 61.8193 235.827 64.9391V64.9391ZM246.138 8.6978C250.056 10.9746 251.579 20.1561 249.118 32.1966C248.961 32.9648 248.784 33.7472 248.592 34.5407C243.738 33.4115 238.467 32.5719 232.948 32.0502C229.733 27.4371 226.402 23.2431 223.058 19.6123C223.934 18.761 224.832 17.9318 225.749 17.1254C234.387 9.55115 242.46 6.56049 246.138 8.6978V8.6978ZM219.5 44.8196C225.27 44.8196 229.948 49.5331 229.948 55.3473C229.948 61.1614 225.27 65.8749 219.5 65.8749C213.73 65.8749 209.052 61.1614 209.052 55.3473C209.052 49.5331 213.73 44.8196 219.5 44.8196V44.8196Z" fill="#00D8FF"/>
<path d="M0 0H108V108H0V0Z" fill="#F7DF1E"/>
<path d="M28.3973 90.2521L36.6618 85.2503C38.2565 88.0773 39.7069 90.4693 43.1861 90.4693C46.521 90.4693 48.6241 89.1649 48.6241 84.0906V49.582H58.7731V84.234C58.7731 94.7459 52.6112 99.5308 43.621 99.5308C35.5021 99.5308 30.7893 95.3259 28.3968 90.2512" fill="black"/>
<path d="M64.2857 89.1646L72.5494 84.3802C74.725 87.9328 77.5524 90.5425 82.5541 90.5425C86.7598 90.5425 89.4413 88.4399 89.4413 85.5399C89.4413 82.0603 86.6864 80.8275 82.0466 78.7983L79.5099 77.7099C72.1874 74.5935 67.3304 70.6785 67.3304 62.414C67.3304 54.8017 73.1299 49.0017 82.1922 49.0017C88.6443 49.0017 93.2841 51.2495 96.6186 57.1215L88.716 62.1967C86.9758 59.0795 85.0917 57.8472 82.1918 57.8472C79.2192 57.8472 77.3343 59.7321 77.3343 62.1967C77.3343 65.2414 79.2192 66.4745 83.5688 68.3594L86.1059 69.4466C94.7332 73.1444 99.5903 76.9138 99.5903 85.3952C99.5903 94.5305 92.4134 99.5322 82.7714 99.5322C73.3471 99.5322 67.2574 95.0376 64.2853 89.1651" fill="black"/>
<path d="M378.5 107.8C377.025 107.8 375.648 107.404 374.37 106.711L361.29 98.8868C359.323 97.7975 360.306 97.4014 360.896 97.2033C363.552 96.312 364.043 96.114 366.797 94.5291C367.092 94.331 367.486 94.4301 367.78 94.6281L377.812 100.669C378.205 100.867 378.697 100.867 378.992 100.669L418.231 77.7924C418.625 77.5944 418.821 77.1983 418.821 76.7031V31.0475C418.821 30.5523 418.625 30.1562 418.231 29.9582L378.992 7.17987C378.598 6.98181 378.107 6.98181 377.812 7.17987L338.572 29.9585C338.179 30.1566 337.982 30.6518 337.982 31.0479V76.7031C337.982 77.0992 338.179 77.5944 338.572 77.7924L349.292 84.0314C355.094 87.0023 358.733 83.5363 358.733 80.0702V35.0087C358.733 34.4146 359.225 33.8204 359.913 33.8204H364.929C365.519 33.8204 366.109 34.3155 366.109 35.0087V80.0698C366.109 87.8936 361.88 92.4491 354.504 92.4491C352.242 92.4491 350.472 92.4491 345.457 89.9733L335.13 84.0314C332.573 82.5456 331 79.7727 331 76.8018V31.1469C331 28.176 332.573 25.4031 335.13 23.9173L374.37 1.04032C376.828 -0.346121 380.172 -0.346121 382.63 1.04032L421.87 23.9173C424.427 25.4027 426 28.1756 426 31.1469V76.8021C426 79.7731 424.427 82.5459 421.87 84.0314L382.63 106.909C381.352 107.503 379.877 107.8 378.5 107.8V107.8ZM390.596 76.4056C373.386 76.4056 369.846 68.4831 369.846 61.7487C369.846 61.1545 370.337 60.5603 371.026 60.5603H376.139C376.73 60.5603 377.222 60.9564 377.222 61.5506C378.008 66.7992 380.27 69.3744 390.695 69.3744C398.955 69.3744 402.496 67.4928 402.496 63.0364C402.496 60.4612 401.513 58.5797 388.629 57.2919C377.91 56.2025 371.222 53.8258 371.222 45.2101C371.222 37.1878 377.91 32.4343 389.121 32.4343C401.709 32.4343 407.905 36.7917 408.691 46.299C408.691 46.5961 408.593 46.8932 408.396 47.1903C408.2 47.3884 407.905 47.5865 407.61 47.5865H402.496C402.004 47.5865 401.513 47.1903 401.414 46.6952C400.234 41.2485 397.185 39.4659 389.121 39.4659C380.074 39.4659 378.992 42.6349 378.992 45.0116C378.992 47.8839 380.27 48.7748 392.465 50.3593C404.561 51.9438 410.265 54.2219 410.265 62.739C410.167 71.4541 403.086 76.4056 390.596 76.4056V76.4056Z" fill="#539E43"/>
</svg>
