<svg width="145" height="146" viewBox="0 0 145 146" fill="none" xmlns="http://www.w3.org/2000/svg">
<rect width="145" height="145" rx="20" fill="#2D3748"/>
<path d="M72.5007 139C57.1489 139 42.7141 133.211 31.8553 122.7C20.9862 112.18 15 98.1879 15 83.3033C15 72.8541 17.8204 62.7922 23.1563 54.2061C23.8322 53.1188 24.2908 51.8936 24.7764 50.5965C25.4869 48.6989 26.2219 46.7362 27.7063 45.1354C29.3022 43.4147 31.579 42.2135 33.7808 41.052C35.1573 40.3257 36.4578 39.6399 37.5372 38.8636C40.4437 36.7737 43.5905 34.9423 46.8906 33.4197C47.6134 32.5691 47.3645 27.3343 47.1992 23.8597C46.8632 16.7953 46.5161 9.49026 49.3621 6.72388C49.8492 6.25052 50.4692 6 51.155 6C53.3554 6 56.4578 8.8175 60.3761 14.3745C63.2295 18.4214 65.8503 23.0426 66.2182 24.6754C66.4224 25.5825 68.1354 27.5054 68.9561 27.7493C68.9495 27.7466 69.0123 27.757 69.167 27.757C69.4169 27.757 69.7649 27.7325 70.1676 27.7043C70.7985 27.6601 71.5839 27.605 72.5004 27.605C75.7433 27.605 78.8084 28.3904 81.7726 29.1499C84.5861 29.8709 87.2439 30.5519 89.9121 30.5519C89.9126 30.5519 89.9129 30.5519 89.9132 30.5519C90.173 30.5519 90.4323 30.5452 90.6844 30.5322C91.0738 30.5117 92.259 29.9444 92.8712 29.4849C94.8114 28.0286 97.7481 24.8392 100.857 21.4626C107.423 14.3319 111.609 10.0022 114.371 10.0022C115.172 10.0022 115.861 10.3587 116.311 11.0059C117.775 13.1134 118.368 14.6607 118.659 17.1377C118.691 17.4076 118.73 17.7093 118.773 18.0423C119.294 22.0621 120.372 30.3935 116.638 41.4838C116.821 42.9238 117.408 46.1657 118.417 47.4668C125.453 56.5468 130 70.6132 130 83.303C130 98.1876 124.014 112.179 113.145 122.7C102.287 133.211 87.8522 139 72.5007 139ZM51.1555 8.39606C51.086 8.39606 51.0674 8.40804 51.0325 8.44212C48.9609 10.4556 49.3261 18.1371 49.5929 23.746C49.9312 30.8631 50.0116 34.6215 47.9424 35.5735C44.7634 37.0364 41.7332 38.7981 38.9364 40.8092C37.7225 41.6819 36.2871 42.439 34.8991 43.1714C32.8749 44.2395 30.7815 45.3438 29.4635 46.765C28.3004 48.0192 27.6788 49.6794 27.0205 51.4373C26.5153 52.7865 25.993 54.1818 25.1914 55.4712C20.0914 63.6769 17.3958 73.3013 17.3958 83.3033C17.3958 112.693 42.1157 136.604 72.5004 136.604C102.885 136.604 127.604 112.693 127.604 83.3033C127.604 71.1116 123.254 57.6213 116.523 48.935C114.843 46.7679 114.283 42.0197 114.225 41.4857L114.196 41.2205L114.283 40.9678C117.942 30.2769 116.899 22.2216 116.397 18.3504C116.353 18.0069 116.313 17.696 116.28 17.418C116.036 15.3449 115.587 14.1676 114.361 12.3985C112.439 12.422 106.532 18.8378 102.62 23.0858C99.434 26.5457 96.4251 29.8136 94.309 31.4014C93.7071 31.853 91.9909 32.8633 90.8092 32.9248C90.5156 32.9402 90.2143 32.948 89.9132 32.948C89.9129 32.948 89.9124 32.948 89.9121 32.948C86.9418 32.948 84.0117 32.1972 81.1779 31.4709C78.3572 30.7484 75.4409 30.0011 72.5001 30.0011C71.6674 30.0011 70.9287 30.053 70.3348 30.0945C69.8871 30.1259 69.5005 30.1531 69.1667 30.1531C68.8047 30.1531 68.5233 30.1198 68.2808 30.0482C66.4892 29.5203 64.2467 26.8268 63.8807 25.2018C63.6515 24.184 61.4092 19.9978 58.4179 15.7552C54.3226 9.94605 51.9259 8.39606 51.1555 8.39606ZM39.6176 90.3054C40.3822 90.0418 43.1784 90.0464 39.3003 85.9643C44.556 91.7819 55.4427 78.9467 41.0639 74.8769C37.1901 73.78 26.4482 74.1775 27.9812 81.1317C28.2871 81.8566 31.6 84.9087 31.7047 84.6108C27.4118 83.9737 30.2757 90.2716 34.6571 90.8323C35.505 90.9417 38.8094 90.5841 39.6176 90.3054ZM39.8631 98.4041C32.1561 93.0055 24.4077 100.136 32.3896 103.091C38.0497 105.185 38.7285 104.174 43.8599 104.99C47.2918 105.536 67.0626 106.594 67.3996 100.446C66.5818 100.52 67.3105 102.071 67.3996 100.446C61.3088 100.998 55.0155 102.293 52.3625 102.803C50.3918 103.182 48.3444 101.136 45.895 100.292L39.8631 98.4041ZM74.5938 58.5967C79.9512 58.2906 84.4413 65.1292 84.4413 65.1292C84.4413 65.1292 79.9512 72.324 75.0528 72.1712C70.1541 72.0181 70.3771 70.2874 66.9394 69.4666C63.5213 68.6501 69.2362 58.9029 74.5938 58.5967ZM73.0693 62.0247C73.7974 61.0772 75.7918 64.8736 76.0889 62.3242C76.1905 61.4566 75.8849 61.0484 72.568 61.099C69.2516 61.1501 67.7718 68.3255 69.8639 69.5196C71.4771 70.4399 72.6487 72.0155 72.137 69.9804C71.7092 68.2811 72.001 63.4144 73.0693 62.0247ZM40.137 52.6473C44.2187 52.6473 45.5452 55.3011 45.6477 56.7813C45.7497 58.2613 43.0964 64.0786 40.4431 64.0786C39.1968 64.0792 35.8782 62.3407 35.5449 59.6654C35.1685 56.6453 37.9722 52.6473 40.137 52.6473ZM39.5742 54.4393C40.3377 53.3459 36.6446 55.2183 36.9037 58.5869C37.1627 61.9547 40.6018 63.4663 39.8474 62.4381C37.0647 58.6481 39.1193 53.7604 38.3694 55.1618C39.1211 55.7286 40.7032 54.504 38.9188 54.2074C38.8065 54.189 39.5066 54.5359 39.5742 54.4393ZM43.8918 55.3716C43.4835 55.3716 43.1523 55.7257 43.1523 56.1629C43.1523 56.5995 43.4835 56.9538 43.8918 56.9538C44.3004 56.9538 44.6319 56.5995 44.6319 56.1629C44.6319 55.7257 44.3004 55.3716 43.8918 55.3716Z" fill="black"/>
<path d="M32.2734 139H28.3633V125C28.3633 124.727 28.3086 124.471 28.1992 124.234C28.099 123.997 27.9577 123.792 27.7754 123.619C27.6022 123.437 27.3971 123.296 27.1602 123.195C26.9232 123.095 26.668 123.045 26.3945 123.045C26.1211 123.045 25.8659 123.095 25.6289 123.195C25.3919 123.296 25.1823 123.437 25 123.619C24.8268 123.792 24.6901 123.997 24.5898 124.234C24.4896 124.471 24.4395 124.727 24.4395 125V139H20.5156V125C20.5156 124.727 20.4655 124.471 20.3652 124.234C20.265 123.997 20.1237 123.792 19.9414 123.619C19.7682 123.437 19.5632 123.296 19.3262 123.195C19.0892 123.095 18.834 123.045 18.5605 123.045C18.2871 123.045 18.0319 123.095 17.7949 123.195C17.5579 123.296 17.3483 123.437 17.166 123.619C16.9928 123.792 16.8561 123.997 16.7559 124.234C16.6556 124.471 16.6055 124.727 16.6055 125V139H12.6816V125C12.6816 124.189 12.832 123.428 13.1328 122.717C13.4427 121.997 13.862 121.372 14.3906 120.844C14.9284 120.306 15.5527 119.887 16.2637 119.586C16.9837 119.276 17.7493 119.121 18.5605 119.121C19.2897 119.121 19.9915 119.253 20.666 119.518C21.3405 119.773 21.9466 120.146 22.4844 120.639C23.0221 120.146 23.6237 119.773 24.2891 119.518C24.9635 119.253 25.6654 119.121 26.3945 119.121C27.2057 119.121 27.9668 119.276 28.6777 119.586C29.3978 119.887 30.0221 120.306 30.5508 120.844C31.0885 121.372 31.5078 121.997 31.8086 122.717C32.1185 123.428 32.2734 124.189 32.2734 125V139ZM41.0508 135.418C41.1966 135.464 41.3424 135.495 41.4883 135.514C41.6341 135.523 41.7799 135.527 41.9258 135.527C42.2904 135.527 42.6413 135.477 42.9785 135.377C43.3158 135.277 43.6302 135.135 43.9219 134.953C44.2227 134.762 44.487 134.534 44.7148 134.27C44.9518 133.996 45.1432 133.695 45.2891 133.367L48.0234 136.115C47.6771 136.607 47.276 137.049 46.8203 137.441C46.3737 137.833 45.8861 138.166 45.3574 138.439C44.8379 138.713 44.2865 138.918 43.7031 139.055C43.1289 139.201 42.5365 139.273 41.9258 139.273C40.8958 139.273 39.9251 139.082 39.0137 138.699C38.1113 138.316 37.3184 137.783 36.6348 137.1C35.9603 136.416 35.4271 135.605 35.0352 134.666C34.6432 133.718 34.4473 132.679 34.4473 131.549C34.4473 130.391 34.6432 129.334 35.0352 128.377C35.4271 127.42 35.9603 126.604 36.6348 125.93C37.3184 125.255 38.1113 124.731 39.0137 124.357C39.9251 123.984 40.8958 123.797 41.9258 123.797C42.5365 123.797 43.1335 123.87 43.7168 124.016C44.3001 124.161 44.8516 124.371 45.3711 124.645C45.8997 124.918 46.3919 125.255 46.8477 125.656C47.3034 126.048 47.7044 126.49 48.0508 126.982L41.0508 135.418ZM42.9648 127.721C42.7917 127.657 42.6185 127.616 42.4453 127.598C42.2812 127.579 42.1081 127.57 41.9258 127.57C41.4154 127.57 40.9323 127.666 40.4766 127.857C40.0299 128.04 39.638 128.304 39.3008 128.65C38.9727 128.997 38.7129 129.416 38.5215 129.908C38.3301 130.391 38.2344 130.938 38.2344 131.549C38.2344 131.686 38.2389 131.84 38.248 132.014C38.2663 132.187 38.2891 132.365 38.3164 132.547C38.3529 132.72 38.3939 132.889 38.4395 133.053C38.485 133.217 38.5443 133.363 38.6172 133.49L42.9648 127.721ZM68.5586 139H64.8398V129.703C64.8398 129.448 64.7897 129.206 64.6895 128.979C64.5983 128.751 64.4661 128.55 64.293 128.377C64.1198 128.204 63.9193 128.072 63.6914 127.98C63.4635 127.88 63.222 127.83 62.9668 127.83C62.7116 127.83 62.4701 127.88 62.2422 127.98C62.0234 128.072 61.8275 128.204 61.6543 128.377C61.4902 128.55 61.3581 128.751 61.2578 128.979C61.1667 129.206 61.1211 129.448 61.1211 129.703V139H57.3887V129.703C57.3887 129.448 57.3385 129.206 57.2383 128.979C57.1471 128.751 57.015 128.55 56.8418 128.377C56.6686 128.204 56.4681 128.072 56.2402 127.98C56.0124 127.88 55.7708 127.83 55.5156 127.83C55.2604 127.83 55.0189 127.88 54.791 127.98C54.5723 128.072 54.3763 128.204 54.2031 128.377C54.0391 128.55 53.9069 128.751 53.8066 128.979C53.7155 129.206 53.6699 129.448 53.6699 129.703V139H49.9375V124.357H50.8398L51.8516 125.479C52.3711 125.041 52.9408 124.704 53.5605 124.467C54.1895 124.221 54.8411 124.098 55.5156 124.098C56.1992 124.098 56.8646 124.225 57.5117 124.48C58.168 124.736 58.7422 125.178 59.2344 125.807C59.4622 125.497 59.722 125.232 60.0137 125.014C60.3053 124.795 60.6107 124.617 60.9297 124.48C61.2578 124.344 61.5951 124.248 61.9414 124.193C62.2878 124.13 62.6296 124.098 62.9668 124.098C63.7415 124.098 64.4661 124.243 65.1406 124.535C65.8242 124.827 66.4167 125.228 66.918 125.738C67.4284 126.24 67.8294 126.832 68.1211 127.516C68.4128 128.199 68.5586 128.928 68.5586 129.703V139ZM77.1172 135.418C77.263 135.464 77.4089 135.495 77.5547 135.514C77.7005 135.523 77.8464 135.527 77.9922 135.527C78.3568 135.527 78.7077 135.477 79.0449 135.377C79.3822 135.277 79.6966 135.135 79.9883 134.953C80.2891 134.762 80.5534 134.534 80.7812 134.27C81.0182 133.996 81.2096 133.695 81.3555 133.367L84.0898 136.115C83.7435 136.607 83.3424 137.049 82.8867 137.441C82.4401 137.833 81.9525 138.166 81.4238 138.439C80.9043 138.713 80.3529 138.918 79.7695 139.055C79.1953 139.201 78.6029 139.273 77.9922 139.273C76.9622 139.273 75.9915 139.082 75.0801 138.699C74.1777 138.316 73.3848 137.783 72.7012 137.1C72.0267 136.416 71.4935 135.605 71.1016 134.666C70.7096 133.718 70.5137 132.679 70.5137 131.549C70.5137 130.391 70.7096 129.334 71.1016 128.377C71.4935 127.42 72.0267 126.604 72.7012 125.93C73.3848 125.255 74.1777 124.731 75.0801 124.357C75.9915 123.984 76.9622 123.797 77.9922 123.797C78.6029 123.797 79.1999 123.87 79.7832 124.016C80.3665 124.161 80.918 124.371 81.4375 124.645C81.9661 124.918 82.4583 125.255 82.9141 125.656C83.3698 126.048 83.7708 126.49 84.1172 126.982L77.1172 135.418ZM79.0312 127.721C78.8581 127.657 78.6849 127.616 78.5117 127.598C78.3477 127.579 78.1745 127.57 77.9922 127.57C77.4818 127.57 76.9987 127.666 76.543 127.857C76.0964 128.04 75.7044 128.304 75.3672 128.65C75.0391 128.997 74.7793 129.416 74.5879 129.908C74.3965 130.391 74.3008 130.938 74.3008 131.549C74.3008 131.686 74.3053 131.84 74.3145 132.014C74.3327 132.187 74.3555 132.365 74.3828 132.547C74.4193 132.72 74.4603 132.889 74.5059 133.053C74.5514 133.217 74.6107 133.363 74.6836 133.49L79.0312 127.721ZM102 137.018C101.089 137.792 100.072 138.389 98.9512 138.809C97.8301 139.219 96.6634 139.424 95.4512 139.424C94.5215 139.424 93.6237 139.301 92.7578 139.055C91.901 138.818 91.099 138.48 90.3516 138.043C89.6042 137.596 88.9206 137.068 88.3008 136.457C87.681 135.837 87.1523 135.154 86.7148 134.406C86.2773 133.65 85.9355 132.839 85.6895 131.973C85.4525 131.107 85.334 130.209 85.334 129.279C85.334 128.35 85.4525 127.456 85.6895 126.6C85.9355 125.743 86.2773 124.941 86.7148 124.193C87.1523 123.437 87.681 122.753 88.3008 122.143C88.9206 121.523 89.6042 120.994 90.3516 120.557C91.099 120.119 91.901 119.782 92.7578 119.545C93.6237 119.299 94.5215 119.176 95.4512 119.176C96.6634 119.176 97.8301 119.385 98.9512 119.805C100.072 120.215 101.089 120.807 102 121.582L99.9492 125C99.3568 124.398 98.6732 123.929 97.8984 123.592C97.1237 123.245 96.3079 123.072 95.4512 123.072C94.5944 123.072 93.7878 123.236 93.0312 123.564C92.2839 123.893 91.6276 124.339 91.0625 124.904C90.4974 125.46 90.0508 126.117 89.7227 126.873C89.3945 127.62 89.2305 128.423 89.2305 129.279C89.2305 130.145 89.3945 130.956 89.7227 131.713C90.0508 132.469 90.4974 133.13 91.0625 133.695C91.6276 134.26 92.2839 134.707 93.0312 135.035C93.7878 135.363 94.5944 135.527 95.4512 135.527C95.9434 135.527 96.4219 135.468 96.8867 135.35C97.3516 135.231 97.7936 135.067 98.2129 134.857V129.279H102V137.018ZM110.449 135.418C110.595 135.464 110.741 135.495 110.887 135.514C111.033 135.523 111.178 135.527 111.324 135.527C111.689 135.527 112.04 135.477 112.377 135.377C112.714 135.277 113.029 135.135 113.32 134.953C113.621 134.762 113.885 134.534 114.113 134.27C114.35 133.996 114.542 133.695 114.688 133.367L117.422 136.115C117.076 136.607 116.674 137.049 116.219 137.441C115.772 137.833 115.285 138.166 114.756 138.439C114.236 138.713 113.685 138.918 113.102 139.055C112.527 139.201 111.935 139.273 111.324 139.273C110.294 139.273 109.324 139.082 108.412 138.699C107.51 138.316 106.717 137.783 106.033 137.1C105.359 136.416 104.826 135.605 104.434 134.666C104.042 133.718 103.846 132.679 103.846 131.549C103.846 130.391 104.042 129.334 104.434 128.377C104.826 127.42 105.359 126.604 106.033 125.93C106.717 125.255 107.51 124.731 108.412 124.357C109.324 123.984 110.294 123.797 111.324 123.797C111.935 123.797 112.532 123.87 113.115 124.016C113.699 124.161 114.25 124.371 114.77 124.645C115.298 124.918 115.79 125.255 116.246 125.656C116.702 126.048 117.103 126.49 117.449 126.982L110.449 135.418ZM112.363 127.721C112.19 127.657 112.017 127.616 111.844 127.598C111.68 127.579 111.507 127.57 111.324 127.57C110.814 127.57 110.331 127.666 109.875 127.857C109.428 128.04 109.036 128.304 108.699 128.65C108.371 128.997 108.111 129.416 107.92 129.908C107.729 130.391 107.633 130.938 107.633 131.549C107.633 131.686 107.637 131.84 107.646 132.014C107.665 132.187 107.688 132.365 107.715 132.547C107.751 132.72 107.792 132.889 107.838 133.053C107.883 133.217 107.943 133.363 108.016 133.49L112.363 127.721ZM123.068 139H119.336V124.357H120.238L121.469 125.779C122.07 125.232 122.749 124.813 123.506 124.521C124.271 124.221 125.069 124.07 125.898 124.07C126.792 124.07 127.635 124.243 128.428 124.59C129.221 124.927 129.913 125.396 130.506 125.998C131.098 126.59 131.563 127.288 131.9 128.09C132.247 128.883 132.42 129.73 132.42 130.633V139H128.688V130.633C128.688 130.25 128.615 129.89 128.469 129.553C128.323 129.206 128.122 128.906 127.867 128.65C127.612 128.395 127.316 128.195 126.979 128.049C126.641 127.903 126.281 127.83 125.898 127.83C125.507 127.83 125.137 127.903 124.791 128.049C124.445 128.195 124.144 128.395 123.889 128.65C123.633 128.906 123.433 129.206 123.287 129.553C123.141 129.89 123.068 130.25 123.068 130.633V139Z" fill="white" fill-opacity="0.8"/>
</svg>
